# MagicaVoxel @ Ephtracy

# group
o 

# material
mtllib Clear.mtl
usemtl palette

# normals
vn -1 0 0
vn 1 0 0
vn 0 0 1
vn 0 0 -1
vn 0 -1 0
vn 0 1 0

# texcoords
vt 0.0214844 0.5
vt 0.0292969 0.5
vt 0.0410156 0.5

# verts
v -3.2 0 3.2
v -3.2 0 -3.2
v -3.2 0.2 3.2
v -3.2 0.2 -3.2
v 2.2 0.1 3.2
v 2.2 0.1 -2.2
v 2.2 0.2 3.2
v 2.2 0.2 -2.2
v -2.2 0.1 3.2
v -2.2 0.1 -2.2
v -2.2 0.2 3.2
v -2.2 0.2 -2.2
v 3.2 0 3.2
v 3.2 0 -3.2
v 3.2 0.2 3.2
v 3.2 0.2 -3.2
v -3.2 0 3.2
v -3.2 0.2 3.2
v -2.2 0 3.2
v -2.2 0.1 3.2
v -2.2 0.2 3.2
v 2.2 0 3.2
v 2.2 0.1 3.2
v 2.2 0.2 3.2
v 3.2 0 3.2
v 3.2 0.2 3.2
v -2.2 0.1 -2.2
v -2.2 0.2 -2.2
v 2.2 0.1 -2.2
v 2.2 0.2 -2.2
v -3.2 0 -3.2
v -3.2 0.2 -3.2
v 3.2 0 -3.2
v 3.2 0.2 -3.2
v -3.2 0 3.2
v -2.2 0 3.2
v 2.2 0 3.2
v 3.2 0 3.2
v -2 0 3
v 2 0 3
v -1.9 0 2.9
v -1.8 0 2.9
v -1.7 0 2.9
v 1.7 0 2.9
v 1.8 0 2.9
v 1.9 0 2.9
v -1.9 0 2.8
v -1.8 0 2.8
v -1.7 0 2.8
v 1.7 0 2.8
v 1.8 0 2.8
v 1.9 0 2.8
v -1.9 0 2.7
v -1.8 0 2.7
v -1.7 0 2.7
v 1.7 0 2.7
v 1.8 0 2.7
v 1.9 0 2.7
v -1.9 0 2.3
v -1.8 0 2.3
v -1.7 0 2.3
v 1.7 0 2.3
v 1.8 0 2.3
v 1.9 0 2.3
v -1.9 0 2.2
v -1.8 0 2.2
v -1.7 0 2.2
v 1.7 0 2.2
v 1.8 0 2.2
v 1.9 0 2.2
v -1.9 0 1.8
v -1.8 0 1.8
v -1.7 0 1.8
v 1.7 0 1.8
v 1.8 0 1.8
v 1.9 0 1.8
v -1.9 0 1.7
v -1.8 0 1.7
v -1.7 0 1.7
v 1.7 0 1.7
v 1.8 0 1.7
v 1.9 0 1.7
v -1.9 0 1.3
v -1.8 0 1.3
v -1.7 0 1.3
v 1.7 0 1.3
v 1.8 0 1.3
v 1.9 0 1.3
v -1.9 0 1.2
v -1.8 0 1.2
v -1.7 0 1.2
v 1.7 0 1.2
v 1.8 0 1.2
v 1.9 0 1.2
v -1.9 0 0.8
v -1.8 0 0.8
v -1.7 0 0.8
v 1.7 0 0.8
v 1.8 0 0.8
v 1.9 0 0.8
v -1.9 0 0.7
v -1.8 0 0.7
v -1.7 0 0.7
v 1.7 0 0.7
v 1.8 0 0.7
v 1.9 0 0.7
v -1.9 0 0.3
v -1.8 0 0.3
v -1.7 0 0.3
v 1.7 0 0.3
v 1.8 0 0.3
v 1.9 0 0.3
v -1.9 0 0.2
v -1.8 0 0.2
v -1.7 0 0.2
v 1.7 0 0.2
v 1.8 0 0.2
v 1.9 0 0.2
v -1.9 0 -0.2
v -1.8 0 -0.2
v -1.7 0 -0.2
v 1.7 0 -0.2
v 1.8 0 -0.2
v 1.9 0 -0.2
v -1.9 0 -0.3
v -1.8 0 -0.3
v -1.7 0 -0.3
v 1.7 0 -0.3
v 1.8 0 -0.3
v 1.9 0 -0.3
v -1.9 0 -0.7
v -1.8 0 -0.7
v -1.7 0 -0.7
v 1.7 0 -0.7
v 1.8 0 -0.7
v 1.9 0 -0.7
v -1.9 0 -0.8
v -1.8 0 -0.8
v -1.7 0 -0.8
v 1.7 0 -0.8
v 1.8 0 -0.8
v 1.9 0 -0.8
v -1.9 0 -1.2
v -1.8 0 -1.2
v -1.7 0 -1.2
v 1.7 0 -1.2
v 1.8 0 -1.2
v 1.9 0 -1.2
v -1.9 0 -1.3
v -1.8 0 -1.3
v -1.7 0 -1.3
v 1.7 0 -1.3
v 1.8 0 -1.3
v 1.9 0 -1.3
v -1.9 0 -1.7
v -1.8 0 -1.7
v -1.7 0 -1.7
v 1.7 0 -1.7
v 1.8 0 -1.7
v 1.9 0 -1.7
v -1.9 0 -1.8
v -1.8 0 -1.8
v -1.7 0 -1.8
v 1.7 0 -1.8
v 1.8 0 -1.8
v 1.9 0 -1.8
v -1.9 0 -1.9
v -1.8 0 -1.9
v -1.7 0 -1.9
v 1.7 0 -1.9
v 1.8 0 -1.9
v 1.9 0 -1.9
v -2 0 -2
v 2 0 -2
v -2.2 0 -2.2
v 2.2 0 -2.2
v -3.2 0 -3.2
v 3.2 0 -3.2
v -2.2 0.1 3.2
v 2.2 0.1 3.2
v -2 0.1 3
v 2 0.1 3
v -1.9 0.1 2.9
v -1.8 0.1 2.9
v -1.7 0.1 2.9
v 1.7 0.1 2.9
v 1.8 0.1 2.9
v 1.9 0.1 2.9
v -1.9 0.1 2.8
v -1.8 0.1 2.8
v -1.7 0.1 2.8
v 1.7 0.1 2.8
v 1.8 0.1 2.8
v 1.9 0.1 2.8
v -1.9 0.1 2.7
v -1.8 0.1 2.7
v -1.7 0.1 2.7
v 1.7 0.1 2.7
v 1.8 0.1 2.7
v 1.9 0.1 2.7
v -1.9 0.1 2.3
v -1.8 0.1 2.3
v -1.7 0.1 2.3
v 1.7 0.1 2.3
v 1.8 0.1 2.3
v 1.9 0.1 2.3
v -1.9 0.1 2.2
v -1.8 0.1 2.2
v -1.7 0.1 2.2
v 1.7 0.1 2.2
v 1.8 0.1 2.2
v 1.9 0.1 2.2
v -1.9 0.1 1.8
v -1.8 0.1 1.8
v -1.7 0.1 1.8
v 1.7 0.1 1.8
v 1.8 0.1 1.8
v 1.9 0.1 1.8
v -1.9 0.1 1.7
v -1.8 0.1 1.7
v -1.7 0.1 1.7
v 1.7 0.1 1.7
v 1.8 0.1 1.7
v 1.9 0.1 1.7
v -1.9 0.1 1.3
v -1.8 0.1 1.3
v -1.7 0.1 1.3
v 1.7 0.1 1.3
v 1.8 0.1 1.3
v 1.9 0.1 1.3
v -1.9 0.1 1.2
v -1.8 0.1 1.2
v -1.7 0.1 1.2
v 1.7 0.1 1.2
v 1.8 0.1 1.2
v 1.9 0.1 1.2
v -1.9 0.1 0.8
v -1.8 0.1 0.8
v -1.7 0.1 0.8
v 1.7 0.1 0.8
v 1.8 0.1 0.8
v 1.9 0.1 0.8
v -1.9 0.1 0.7
v -1.8 0.1 0.7
v -1.7 0.1 0.7
v 1.7 0.1 0.7
v 1.8 0.1 0.7
v 1.9 0.1 0.7
v -1.9 0.1 0.3
v -1.8 0.1 0.3
v -1.7 0.1 0.3
v 1.7 0.1 0.3
v 1.8 0.1 0.3
v 1.9 0.1 0.3
v -1.9 0.1 0.2
v -1.8 0.1 0.2
v -1.7 0.1 0.2
v 1.7 0.1 0.2
v 1.8 0.1 0.2
v 1.9 0.1 0.2
v -1.9 0.1 -0.2
v -1.8 0.1 -0.2
v -1.7 0.1 -0.2
v 1.7 0.1 -0.2
v 1.8 0.1 -0.2
v 1.9 0.1 -0.2
v -1.9 0.1 -0.3
v -1.8 0.1 -0.3
v -1.7 0.1 -0.3
v 1.7 0.1 -0.3
v 1.8 0.1 -0.3
v 1.9 0.1 -0.3
v -1.9 0.1 -0.7
v -1.8 0.1 -0.7
v -1.7 0.1 -0.7
v 1.7 0.1 -0.7
v 1.8 0.1 -0.7
v 1.9 0.1 -0.7
v -1.9 0.1 -0.8
v -1.8 0.1 -0.8
v -1.7 0.1 -0.8
v 1.7 0.1 -0.8
v 1.8 0.1 -0.8
v 1.9 0.1 -0.8
v -1.9 0.1 -1.2
v -1.8 0.1 -1.2
v -1.7 0.1 -1.2
v 1.7 0.1 -1.2
v 1.8 0.1 -1.2
v 1.9 0.1 -1.2
v -1.9 0.1 -1.3
v -1.8 0.1 -1.3
v -1.7 0.1 -1.3
v 1.7 0.1 -1.3
v 1.8 0.1 -1.3
v 1.9 0.1 -1.3
v -1.9 0.1 -1.7
v -1.8 0.1 -1.7
v -1.7 0.1 -1.7
v 1.7 0.1 -1.7
v 1.8 0.1 -1.7
v 1.9 0.1 -1.7
v -1.9 0.1 -1.8
v -1.8 0.1 -1.8
v -1.7 0.1 -1.8
v 1.7 0.1 -1.8
v 1.8 0.1 -1.8
v 1.9 0.1 -1.8
v -1.9 0.1 -1.9
v -1.8 0.1 -1.9
v -1.7 0.1 -1.9
v 1.7 0.1 -1.9
v 1.8 0.1 -1.9
v 1.9 0.1 -1.9
v -2 0.1 -2
v 2 0.1 -2
v -2.2 0.1 -2.2
v 2.2 0.1 -2.2
v -3.2 0.2 3.2
v -2.2 0.2 3.2
v 2.2 0.2 3.2
v 3.2 0.2 3.2
v -2.2 0.2 -2.2
v 2.2 0.2 -2.2
v -3.2 0.2 -3.2
v 3.2 0.2 -3.2

# faces
f 3/1/1 2/1/1 1/1/1
f 4/1/1 2/1/1 3/1/1
f 7/1/1 6/1/1 5/1/1
f 8/1/1 6/1/1 7/1/1
f 9/1/2 10/1/2 11/1/2
f 11/1/2 10/1/2 12/1/2
f 13/1/2 14/1/2 15/1/2
f 15/1/2 14/1/2 16/1/2
f 19/1/3 18/1/3 17/1/3
f 20/1/3 18/1/3 19/1/3
f 21/1/3 18/1/3 20/1/3
f 22/3/3 20/3/3 19/3/3
f 23/3/3 20/3/3 22/3/3
f 25/1/3 23/1/3 22/1/3
f 25/1/3 24/1/3 23/1/3
f 26/1/3 24/1/3 25/1/3
f 29/1/3 28/1/3 27/1/3
f 30/1/3 28/1/3 29/1/3
f 31/1/4 32/1/4 33/1/4
f 33/1/4 32/1/4 34/1/4
f 39/3/5 37/3/5 36/3/5
f 40/3/5 37/3/5 39/3/5
f 41/2/5 40/2/5 39/2/5
f 42/2/5 40/2/5 41/2/5
f 43/2/5 40/2/5 42/2/5
f 44/2/5 40/2/5 43/2/5
f 45/2/5 40/2/5 44/2/5
f 46/2/5 40/2/5 45/2/5
f 47/2/5 41/2/5 39/2/5
f 47/3/5 42/3/5 41/3/5
f 48/2/5 43/2/5 42/2/5
f 48/3/5 42/3/5 47/3/5
f 49/3/5 44/3/5 43/3/5
f 49/2/5 43/2/5 48/2/5
f 50/2/5 45/2/5 44/2/5
f 50/3/5 44/3/5 49/3/5
f 51/3/5 46/3/5 45/3/5
f 51/2/5 45/2/5 50/2/5
f 52/2/5 40/2/5 46/2/5
f 52/3/5 46/3/5 51/3/5
f 53/2/5 51/2/5 50/2/5
f 53/2/5 50/2/5 49/2/5
f 53/2/5 52/2/5 51/2/5
f 53/2/5 49/2/5 48/2/5
f 53/2/5 48/2/5 47/2/5
f 53/2/5 47/2/5 39/2/5
f 54/2/5 52/2/5 53/2/5
f 55/2/5 52/2/5 54/2/5
f 56/2/5 52/2/5 55/2/5
f 57/2/5 52/2/5 56/2/5
f 58/2/5 40/2/5 52/2/5
f 58/2/5 52/2/5 57/2/5
f 59/2/5 53/2/5 39/2/5
f 59/3/5 54/3/5 53/3/5
f 60/2/5 55/2/5 54/2/5
f 60/3/5 54/3/5 59/3/5
f 61/3/5 56/3/5 55/3/5
f 61/2/5 55/2/5 60/2/5
f 62/2/5 57/2/5 56/2/5
f 62/3/5 56/3/5 61/3/5
f 63/3/5 58/3/5 57/3/5
f 63/2/5 57/2/5 62/2/5
f 64/2/5 40/2/5 58/2/5
f 64/3/5 58/3/5 63/3/5
f 65/2/5 61/2/5 60/2/5
f 65/2/5 63/2/5 62/2/5
f 65/2/5 64/2/5 63/2/5
f 65/2/5 60/2/5 59/2/5
f 65/2/5 59/2/5 39/2/5
f 65/2/5 62/2/5 61/2/5
f 66/2/5 64/2/5 65/2/5
f 67/2/5 64/2/5 66/2/5
f 68/2/5 64/2/5 67/2/5
f 69/2/5 64/2/5 68/2/5
f 70/2/5 40/2/5 64/2/5
f 70/2/5 64/2/5 69/2/5
f 71/2/5 65/2/5 39/2/5
f 71/3/5 66/3/5 65/3/5
f 72/2/5 67/2/5 66/2/5
f 72/3/5 66/3/5 71/3/5
f 73/3/5 68/3/5 67/3/5
f 73/2/5 67/2/5 72/2/5
f 74/2/5 69/2/5 68/2/5
f 74/3/5 68/3/5 73/3/5
f 75/3/5 70/3/5 69/3/5
f 75/2/5 69/2/5 74/2/5
f 76/2/5 40/2/5 70/2/5
f 76/3/5 70/3/5 75/3/5
f 77/2/5 73/2/5 72/2/5
f 77/2/5 75/2/5 74/2/5
f 77/2/5 76/2/5 75/2/5
f 77/2/5 72/2/5 71/2/5
f 77/2/5 71/2/5 39/2/5
f 77/2/5 74/2/5 73/2/5
f 78/2/5 76/2/5 77/2/5
f 79/2/5 76/2/5 78/2/5
f 80/2/5 76/2/5 79/2/5
f 81/2/5 76/2/5 80/2/5
f 82/2/5 40/2/5 76/2/5
f 82/2/5 76/2/5 81/2/5
f 83/2/5 77/2/5 39/2/5
f 83/3/5 78/3/5 77/3/5
f 84/2/5 79/2/5 78/2/5
f 84/3/5 78/3/5 83/3/5
f 85/3/5 80/3/5 79/3/5
f 85/2/5 79/2/5 84/2/5
f 86/2/5 81/2/5 80/2/5
f 86/3/5 80/3/5 85/3/5
f 87/3/5 82/3/5 81/3/5
f 87/2/5 81/2/5 86/2/5
f 88/2/5 40/2/5 82/2/5
f 88/3/5 82/3/5 87/3/5
f 89/2/5 85/2/5 84/2/5
f 89/2/5 87/2/5 86/2/5
f 89/2/5 88/2/5 87/2/5
f 89/2/5 84/2/5 83/2/5
f 89/2/5 83/2/5 39/2/5
f 89/2/5 86/2/5 85/2/5
f 90/2/5 88/2/5 89/2/5
f 91/2/5 88/2/5 90/2/5
f 92/2/5 88/2/5 91/2/5
f 93/2/5 88/2/5 92/2/5
f 94/2/5 40/2/5 88/2/5
f 94/2/5 88/2/5 93/2/5
f 95/2/5 89/2/5 39/2/5
f 95/3/5 90/3/5 89/3/5
f 96/2/5 91/2/5 90/2/5
f 96/3/5 90/3/5 95/3/5
f 97/3/5 92/3/5 91/3/5
f 97/2/5 91/2/5 96/2/5
f 98/2/5 93/2/5 92/2/5
f 98/3/5 92/3/5 97/3/5
f 99/3/5 94/3/5 93/3/5
f 99/2/5 93/2/5 98/2/5
f 100/2/5 40/2/5 94/2/5
f 100/3/5 94/3/5 99/3/5
f 101/2/5 97/2/5 96/2/5
f 101/2/5 99/2/5 98/2/5
f 101/2/5 100/2/5 99/2/5
f 101/2/5 96/2/5 95/2/5
f 101/2/5 95/2/5 39/2/5
f 101/2/5 98/2/5 97/2/5
f 102/2/5 100/2/5 101/2/5
f 103/2/5 100/2/5 102/2/5
f 104/2/5 100/2/5 103/2/5
f 105/2/5 100/2/5 104/2/5
f 106/2/5 40/2/5 100/2/5
f 106/2/5 100/2/5 105/2/5
f 107/2/5 101/2/5 39/2/5
f 107/3/5 102/3/5 101/3/5
f 108/2/5 103/2/5 102/2/5
f 108/3/5 102/3/5 107/3/5
f 109/3/5 104/3/5 103/3/5
f 109/2/5 103/2/5 108/2/5
f 110/2/5 105/2/5 104/2/5
f 110/3/5 104/3/5 109/3/5
f 111/3/5 106/3/5 105/3/5
f 111/2/5 105/2/5 110/2/5
f 112/2/5 40/2/5 106/2/5
f 112/3/5 106/3/5 111/3/5
f 113/2/5 109/2/5 108/2/5
f 113/2/5 111/2/5 110/2/5
f 113/2/5 112/2/5 111/2/5
f 113/2/5 108/2/5 107/2/5
f 113/2/5 107/2/5 39/2/5
f 113/2/5 110/2/5 109/2/5
f 114/2/5 112/2/5 113/2/5
f 115/2/5 112/2/5 114/2/5
f 116/2/5 112/2/5 115/2/5
f 117/2/5 112/2/5 116/2/5
f 118/2/5 40/2/5 112/2/5
f 118/2/5 112/2/5 117/2/5
f 119/2/5 113/2/5 39/2/5
f 119/3/5 114/3/5 113/3/5
f 120/2/5 115/2/5 114/2/5
f 120/3/5 114/3/5 119/3/5
f 121/3/5 116/3/5 115/3/5
f 121/2/5 115/2/5 120/2/5
f 122/2/5 117/2/5 116/2/5
f 122/3/5 116/3/5 121/3/5
f 123/3/5 118/3/5 117/3/5
f 123/2/5 117/2/5 122/2/5
f 124/2/5 40/2/5 118/2/5
f 124/3/5 118/3/5 123/3/5
f 125/2/5 121/2/5 120/2/5
f 125/2/5 123/2/5 122/2/5
f 125/2/5 124/2/5 123/2/5
f 125/2/5 120/2/5 119/2/5
f 125/2/5 119/2/5 39/2/5
f 125/2/5 122/2/5 121/2/5
f 126/2/5 124/2/5 125/2/5
f 127/2/5 124/2/5 126/2/5
f 128/2/5 124/2/5 127/2/5
f 129/2/5 124/2/5 128/2/5
f 130/2/5 40/2/5 124/2/5
f 130/2/5 124/2/5 129/2/5
f 131/2/5 125/2/5 39/2/5
f 131/3/5 126/3/5 125/3/5
f 132/2/5 127/2/5 126/2/5
f 132/3/5 126/3/5 131/3/5
f 133/3/5 128/3/5 127/3/5
f 133/2/5 127/2/5 132/2/5
f 134/2/5 129/2/5 128/2/5
f 134/3/5 128/3/5 133/3/5
f 135/3/5 130/3/5 129/3/5
f 135/2/5 129/2/5 134/2/5
f 136/2/5 40/2/5 130/2/5
f 136/3/5 130/3/5 135/3/5
f 137/2/5 133/2/5 132/2/5
f 137/2/5 135/2/5 134/2/5
f 137/2/5 136/2/5 135/2/5
f 137/2/5 132/2/5 131/2/5
f 137/2/5 131/2/5 39/2/5
f 137/2/5 134/2/5 133/2/5
f 138/2/5 136/2/5 137/2/5
f 139/2/5 136/2/5 138/2/5
f 140/2/5 136/2/5 139/2/5
f 141/2/5 136/2/5 140/2/5
f 142/2/5 40/2/5 136/2/5
f 142/2/5 136/2/5 141/2/5
f 143/2/5 137/2/5 39/2/5
f 143/3/5 138/3/5 137/3/5
f 144/2/5 139/2/5 138/2/5
f 144/3/5 138/3/5 143/3/5
f 145/3/5 140/3/5 139/3/5
f 145/2/5 139/2/5 144/2/5
f 146/2/5 141/2/5 140/2/5
f 146/3/5 140/3/5 145/3/5
f 147/3/5 142/3/5 141/3/5
f 147/2/5 141/2/5 146/2/5
f 148/2/5 40/2/5 142/2/5
f 148/3/5 142/3/5 147/3/5
f 149/2/5 145/2/5 144/2/5
f 149/2/5 147/2/5 146/2/5
f 149/2/5 148/2/5 147/2/5
f 149/2/5 144/2/5 143/2/5
f 149/2/5 143/2/5 39/2/5
f 149/2/5 146/2/5 145/2/5
f 150/2/5 148/2/5 149/2/5
f 151/2/5 148/2/5 150/2/5
f 152/2/5 148/2/5 151/2/5
f 153/2/5 148/2/5 152/2/5
f 154/2/5 40/2/5 148/2/5
f 154/2/5 148/2/5 153/2/5
f 155/2/5 149/2/5 39/2/5
f 155/3/5 150/3/5 149/3/5
f 156/2/5 151/2/5 150/2/5
f 156/3/5 150/3/5 155/3/5
f 157/3/5 152/3/5 151/3/5
f 157/2/5 151/2/5 156/2/5
f 158/2/5 153/2/5 152/2/5
f 158/3/5 152/3/5 157/3/5
f 159/3/5 154/3/5 153/3/5
f 159/2/5 153/2/5 158/2/5
f 160/2/5 40/2/5 154/2/5
f 160/3/5 154/3/5 159/3/5
f 161/2/5 157/2/5 156/2/5
f 161/2/5 159/2/5 158/2/5
f 161/2/5 160/2/5 159/2/5
f 161/2/5 156/2/5 155/2/5
f 161/2/5 155/2/5 39/2/5
f 161/2/5 158/2/5 157/2/5
f 162/2/5 160/2/5 161/2/5
f 163/2/5 160/2/5 162/2/5
f 164/2/5 160/2/5 163/2/5
f 165/2/5 160/2/5 164/2/5
f 166/2/5 40/2/5 160/2/5
f 166/2/5 160/2/5 165/2/5
f 167/2/5 161/2/5 39/2/5
f 167/3/5 162/3/5 161/3/5
f 168/2/5 163/2/5 162/2/5
f 168/3/5 162/3/5 167/3/5
f 169/3/5 164/3/5 163/3/5
f 169/2/5 163/2/5 168/2/5
f 170/2/5 165/2/5 164/2/5
f 170/3/5 164/3/5 169/3/5
f 171/3/5 166/3/5 165/3/5
f 171/2/5 165/2/5 170/2/5
f 172/2/5 40/2/5 166/2/5
f 172/3/5 166/3/5 171/3/5
f 173/3/5 39/3/5 36/3/5
f 173/2/5 169/2/5 168/2/5
f 173/2/5 172/2/5 171/2/5
f 173/2/5 168/2/5 167/2/5
f 173/2/5 167/2/5 39/2/5
f 173/2/5 170/2/5 169/2/5
f 173/2/5 171/2/5 170/2/5
f 174/2/5 40/2/5 172/2/5
f 174/2/5 172/2/5 173/2/5
f 174/3/5 37/3/5 40/3/5
f 175/1/5 36/1/5 35/1/5
f 175/3/5 173/3/5 36/3/5
f 175/3/5 174/3/5 173/3/5
f 176/3/5 37/3/5 174/3/5
f 176/3/5 174/3/5 175/3/5
f 176/1/5 38/1/5 37/1/5
f 177/1/5 175/1/5 35/1/5
f 177/1/5 176/1/5 175/1/5
f 178/1/5 38/1/5 176/1/5
f 178/1/5 176/1/5 177/1/5
f 179/3/6 180/3/6 181/3/6
f 181/3/6 180/3/6 182/3/6
f 181/2/6 182/2/6 183/2/6
f 183/2/6 182/2/6 184/2/6
f 184/2/6 182/2/6 185/2/6
f 185/2/6 182/2/6 186/2/6
f 186/2/6 182/2/6 187/2/6
f 187/2/6 182/2/6 188/2/6
f 181/2/6 183/2/6 189/2/6
f 183/3/6 184/3/6 189/3/6
f 184/2/6 185/2/6 190/2/6
f 189/3/6 184/3/6 190/3/6
f 185/3/6 186/3/6 191/3/6
f 190/2/6 185/2/6 191/2/6
f 186/2/6 187/2/6 192/2/6
f 191/3/6 186/3/6 192/3/6
f 187/3/6 188/3/6 193/3/6
f 192/2/6 187/2/6 193/2/6
f 188/2/6 182/2/6 194/2/6
f 193/3/6 188/3/6 194/3/6
f 192/2/6 193/2/6 195/2/6
f 191/2/6 192/2/6 195/2/6
f 193/2/6 194/2/6 195/2/6
f 190/2/6 191/2/6 195/2/6
f 189/2/6 190/2/6 195/2/6
f 181/2/6 189/2/6 195/2/6
f 195/2/6 194/2/6 196/2/6
f 196/2/6 194/2/6 197/2/6
f 197/2/6 194/2/6 198/2/6
f 198/2/6 194/2/6 199/2/6
f 194/2/6 182/2/6 200/2/6
f 199/2/6 194/2/6 200/2/6
f 181/2/6 195/2/6 201/2/6
f 195/3/6 196/3/6 201/3/6
f 196/2/6 197/2/6 202/2/6
f 201/3/6 196/3/6 202/3/6
f 197/3/6 198/3/6 203/3/6
f 202/2/6 197/2/6 203/2/6
f 198/2/6 199/2/6 204/2/6
f 203/3/6 198/3/6 204/3/6
f 199/3/6 200/3/6 205/3/6
f 204/2/6 199/2/6 205/2/6
f 200/2/6 182/2/6 206/2/6
f 205/3/6 200/3/6 206/3/6
f 202/2/6 203/2/6 207/2/6
f 204/2/6 205/2/6 207/2/6
f 205/2/6 206/2/6 207/2/6
f 201/2/6 202/2/6 207/2/6
f 181/2/6 201/2/6 207/2/6
f 203/2/6 204/2/6 207/2/6
f 207/2/6 206/2/6 208/2/6
f 208/2/6 206/2/6 209/2/6
f 209/2/6 206/2/6 210/2/6
f 210/2/6 206/2/6 211/2/6
f 206/2/6 182/2/6 212/2/6
f 211/2/6 206/2/6 212/2/6
f 181/2/6 207/2/6 213/2/6
f 207/3/6 208/3/6 213/3/6
f 208/2/6 209/2/6 214/2/6
f 213/3/6 208/3/6 214/3/6
f 209/3/6 210/3/6 215/3/6
f 214/2/6 209/2/6 215/2/6
f 210/2/6 211/2/6 216/2/6
f 215/3/6 210/3/6 216/3/6
f 211/3/6 212/3/6 217/3/6
f 216/2/6 211/2/6 217/2/6
f 212/2/6 182/2/6 218/2/6
f 217/3/6 212/3/6 218/3/6
f 214/2/6 215/2/6 219/2/6
f 216/2/6 217/2/6 219/2/6
f 217/2/6 218/2/6 219/2/6
f 213/2/6 214/2/6 219/2/6
f 181/2/6 213/2/6 219/2/6
f 215/2/6 216/2/6 219/2/6
f 219/2/6 218/2/6 220/2/6
f 220/2/6 218/2/6 221/2/6
f 221/2/6 218/2/6 222/2/6
f 222/2/6 218/2/6 223/2/6
f 218/2/6 182/2/6 224/2/6
f 223/2/6 218/2/6 224/2/6
f 181/2/6 219/2/6 225/2/6
f 219/3/6 220/3/6 225/3/6
f 220/2/6 221/2/6 226/2/6
f 225/3/6 220/3/6 226/3/6
f 221/3/6 222/3/6 227/3/6
f 226/2/6 221/2/6 227/2/6
f 222/2/6 223/2/6 228/2/6
f 227/3/6 222/3/6 228/3/6
f 223/3/6 224/3/6 229/3/6
f 228/2/6 223/2/6 229/2/6
f 224/2/6 182/2/6 230/2/6
f 229/3/6 224/3/6 230/3/6
f 226/2/6 227/2/6 231/2/6
f 228/2/6 229/2/6 231/2/6
f 229/2/6 230/2/6 231/2/6
f 225/2/6 226/2/6 231/2/6
f 181/2/6 225/2/6 231/2/6
f 227/2/6 228/2/6 231/2/6
f 231/2/6 230/2/6 232/2/6
f 232/2/6 230/2/6 233/2/6
f 233/2/6 230/2/6 234/2/6
f 234/2/6 230/2/6 235/2/6
f 230/2/6 182/2/6 236/2/6
f 235/2/6 230/2/6 236/2/6
f 181/2/6 231/2/6 237/2/6
f 231/3/6 232/3/6 237/3/6
f 232/2/6 233/2/6 238/2/6
f 237/3/6 232/3/6 238/3/6
f 233/3/6 234/3/6 239/3/6
f 238/2/6 233/2/6 239/2/6
f 234/2/6 235/2/6 240/2/6
f 239/3/6 234/3/6 240/3/6
f 235/3/6 236/3/6 241/3/6
f 240/2/6 235/2/6 241/2/6
f 236/2/6 182/2/6 242/2/6
f 241/3/6 236/3/6 242/3/6
f 238/2/6 239/2/6 243/2/6
f 240/2/6 241/2/6 243/2/6
f 241/2/6 242/2/6 243/2/6
f 237/2/6 238/2/6 243/2/6
f 181/2/6 237/2/6 243/2/6
f 239/2/6 240/2/6 243/2/6
f 243/2/6 242/2/6 244/2/6
f 244/2/6 242/2/6 245/2/6
f 245/2/6 242/2/6 246/2/6
f 246/2/6 242/2/6 247/2/6
f 242/2/6 182/2/6 248/2/6
f 247/2/6 242/2/6 248/2/6
f 181/2/6 243/2/6 249/2/6
f 243/3/6 244/3/6 249/3/6
f 244/2/6 245/2/6 250/2/6
f 249/3/6 244/3/6 250/3/6
f 245/3/6 246/3/6 251/3/6
f 250/2/6 245/2/6 251/2/6
f 246/2/6 247/2/6 252/2/6
f 251/3/6 246/3/6 252/3/6
f 247/3/6 248/3/6 253/3/6
f 252/2/6 247/2/6 253/2/6
f 248/2/6 182/2/6 254/2/6
f 253/3/6 248/3/6 254/3/6
f 250/2/6 251/2/6 255/2/6
f 252/2/6 253/2/6 255/2/6
f 253/2/6 254/2/6 255/2/6
f 249/2/6 250/2/6 255/2/6
f 181/2/6 249/2/6 255/2/6
f 251/2/6 252/2/6 255/2/6
f 255/2/6 254/2/6 256/2/6
f 256/2/6 254/2/6 257/2/6
f 257/2/6 254/2/6 258/2/6
f 258/2/6 254/2/6 259/2/6
f 254/2/6 182/2/6 260/2/6
f 259/2/6 254/2/6 260/2/6
f 181/2/6 255/2/6 261/2/6
f 255/3/6 256/3/6 261/3/6
f 256/2/6 257/2/6 262/2/6
f 261/3/6 256/3/6 262/3/6
f 257/3/6 258/3/6 263/3/6
f 262/2/6 257/2/6 263/2/6
f 258/2/6 259/2/6 264/2/6
f 263/3/6 258/3/6 264/3/6
f 259/3/6 260/3/6 265/3/6
f 264/2/6 259/2/6 265/2/6
f 260/2/6 182/2/6 266/2/6
f 265/3/6 260/3/6 266/3/6
f 262/2/6 263/2/6 267/2/6
f 264/2/6 265/2/6 267/2/6
f 265/2/6 266/2/6 267/2/6
f 261/2/6 262/2/6 267/2/6
f 181/2/6 261/2/6 267/2/6
f 263/2/6 264/2/6 267/2/6
f 267/2/6 266/2/6 268/2/6
f 268/2/6 266/2/6 269/2/6
f 269/2/6 266/2/6 270/2/6
f 270/2/6 266/2/6 271/2/6
f 266/2/6 182/2/6 272/2/6
f 271/2/6 266/2/6 272/2/6
f 181/2/6 267/2/6 273/2/6
f 267/3/6 268/3/6 273/3/6
f 268/2/6 269/2/6 274/2/6
f 273/3/6 268/3/6 274/3/6
f 269/3/6 270/3/6 275/3/6
f 274/2/6 269/2/6 275/2/6
f 270/2/6 271/2/6 276/2/6
f 275/3/6 270/3/6 276/3/6
f 271/3/6 272/3/6 277/3/6
f 276/2/6 271/2/6 277/2/6
f 272/2/6 182/2/6 278/2/6
f 277/3/6 272/3/6 278/3/6
f 274/2/6 275/2/6 279/2/6
f 276/2/6 277/2/6 279/2/6
f 277/2/6 278/2/6 279/2/6
f 273/2/6 274/2/6 279/2/6
f 181/2/6 273/2/6 279/2/6
f 275/2/6 276/2/6 279/2/6
f 279/2/6 278/2/6 280/2/6
f 280/2/6 278/2/6 281/2/6
f 281/2/6 278/2/6 282/2/6
f 282/2/6 278/2/6 283/2/6
f 278/2/6 182/2/6 284/2/6
f 283/2/6 278/2/6 284/2/6
f 181/2/6 279/2/6 285/2/6
f 279/3/6 280/3/6 285/3/6
f 280/2/6 281/2/6 286/2/6
f 285/3/6 280/3/6 286/3/6
f 281/3/6 282/3/6 287/3/6
f 286/2/6 281/2/6 287/2/6
f 282/2/6 283/2/6 288/2/6
f 287/3/6 282/3/6 288/3/6
f 283/3/6 284/3/6 289/3/6
f 288/2/6 283/2/6 289/2/6
f 284/2/6 182/2/6 290/2/6
f 289/3/6 284/3/6 290/3/6
f 286/2/6 287/2/6 291/2/6
f 288/2/6 289/2/6 291/2/6
f 289/2/6 290/2/6 291/2/6
f 285/2/6 286/2/6 291/2/6
f 181/2/6 285/2/6 291/2/6
f 287/2/6 288/2/6 291/2/6
f 291/2/6 290/2/6 292/2/6
f 292/2/6 290/2/6 293/2/6
f 293/2/6 290/2/6 294/2/6
f 294/2/6 290/2/6 295/2/6
f 290/2/6 182/2/6 296/2/6
f 295/2/6 290/2/6 296/2/6
f 181/2/6 291/2/6 297/2/6
f 291/3/6 292/3/6 297/3/6
f 292/2/6 293/2/6 298/2/6
f 297/3/6 292/3/6 298/3/6
f 293/3/6 294/3/6 299/3/6
f 298/2/6 293/2/6 299/2/6
f 294/2/6 295/2/6 300/2/6
f 299/3/6 294/3/6 300/3/6
f 295/3/6 296/3/6 301/3/6
f 300/2/6 295/2/6 301/2/6
f 296/2/6 182/2/6 302/2/6
f 301/3/6 296/3/6 302/3/6
f 298/2/6 299/2/6 303/2/6
f 300/2/6 301/2/6 303/2/6
f 301/2/6 302/2/6 303/2/6
f 297/2/6 298/2/6 303/2/6
f 181/2/6 297/2/6 303/2/6
f 299/2/6 300/2/6 303/2/6
f 303/2/6 302/2/6 304/2/6
f 304/2/6 302/2/6 305/2/6
f 305/2/6 302/2/6 306/2/6
f 306/2/6 302/2/6 307/2/6
f 302/2/6 182/2/6 308/2/6
f 307/2/6 302/2/6 308/2/6
f 181/2/6 303/2/6 309/2/6
f 303/3/6 304/3/6 309/3/6
f 304/2/6 305/2/6 310/2/6
f 309/3/6 304/3/6 310/3/6
f 305/3/6 306/3/6 311/3/6
f 310/2/6 305/2/6 311/2/6
f 306/2/6 307/2/6 312/2/6
f 311/3/6 306/3/6 312/3/6
f 307/3/6 308/3/6 313/3/6
f 312/2/6 307/2/6 313/2/6
f 308/2/6 182/2/6 314/2/6
f 313/3/6 308/3/6 314/3/6
f 179/3/6 181/3/6 315/3/6
f 310/2/6 311/2/6 315/2/6
f 313/2/6 314/2/6 315/2/6
f 309/2/6 310/2/6 315/2/6
f 181/2/6 309/2/6 315/2/6
f 311/2/6 312/2/6 315/2/6
f 312/2/6 313/2/6 315/2/6
f 314/2/6 182/2/6 316/2/6
f 315/2/6 314/2/6 316/2/6
f 182/3/6 180/3/6 316/3/6
f 179/3/6 315/3/6 317/3/6
f 315/3/6 316/3/6 317/3/6
f 316/3/6 180/3/6 318/3/6
f 317/3/6 316/3/6 318/3/6
f 319/1/6 320/1/6 323/1/6
f 321/1/6 322/1/6 324/1/6
f 319/1/6 323/1/6 325/1/6
f 323/1/6 324/1/6 325/1/6
f 324/1/6 322/1/6 326/1/6
f 325/1/6 324/1/6 326/1/6
