# MagicaVoxel @ Ephtracy

# group
o 

# material
mtllib Road.mtl
usemtl palette

# normals
vn -1 0 0
vn 1 0 0
vn 0 0 1
vn 0 0 -1
vn 0 -1 0
vn 0 1 0

# texcoords
vt 0.00976563 0.5
vt 0.0214844 0.5
vt 0.0410156 0.5

# verts
v -3.2 0 3.2
v -3.2 0 2.2
v -3.2 0 0.0999999
v -3.2 0 -0.1
v -3.2 0 -2.2
v -3.2 0 -3.2
v -3.2 0.1 2.2
v -3.2 0.1 0.0999999
v -3.2 0.1 -0.1
v -3.2 0.1 -2.2
v -3.2 0.2 3.2
v -3.2 0.2 2.2
v -3.2 0.2 -2.2
v -3.2 0.2 -3.2
v 3.2 0 3.2
v 3.2 0 2.2
v 3.2 0 -2.2
v 3.2 0 -3.2
v 3.2 0.1 2.2
v 3.2 0.1 -2.2
v 3.2 0.2 3.2
v 3.2 0.2 2.2
v 3.2 0.2 -2.2
v 3.2 0.2 -3.2
v -3.2 0 3.2
v -3.2 0.2 3.2
v 3.2 0 3.2
v 3.2 0.2 3.2
v -3.2 0.1 -2.2
v -3.2 0.2 -2.2
v 3.2 0.1 -2.2
v 3.2 0.2 -2.2
v -3.2 0.1 2.2
v -3.2 0.2 2.2
v 3.2 0.1 2.2
v 3.2 0.2 2.2
v -3.2 0 -3.2
v -3.2 0.2 -3.2
v 3.2 0 -3.2
v 3.2 0.2 -3.2
v -3.2 0 3.2
v 3.2 0 3.2
v -3.2 0 2.2
v 3.2 0 2.2
v -3.2 0 0.0999999
v -2.8 0 0.0999999
v -2.4 0 0.0999999
v -2 0 0.0999999
v -1.6 0 0.0999999
v -1.2 0 0.0999999
v -0.8 0 0.0999999
v -0.4 0 0.0999999
v 0 0 0.0999999
v 0.4 0 0.0999999
v 0.8 0 0.0999999
v 1.2 0 0.0999999
v 1.6 0 0.0999999
v 2 0 0.0999999
v 2.4 0 0.0999999
v 2.8 0 0.0999999
v -3.2 0 -0.1
v -2.8 0 -0.1
v -2.4 0 -0.1
v -2 0 -0.1
v -1.6 0 -0.1
v -1.2 0 -0.1
v -0.8 0 -0.1
v -0.4 0 -0.1
v 0 0 -0.1
v 0.4 0 -0.1
v 0.8 0 -0.1
v 1.2 0 -0.1
v 1.6 0 -0.1
v 2 0 -0.1
v 2.4 0 -0.1
v 2.8 0 -0.1
v -3.2 0 -2.2
v 3.2 0 -2.2
v -3.2 0 -3.2
v 3.2 0 -3.2
v -3.2 0.1 2.2
v 3.2 0.1 2.2
v -3.2 0.1 0.0999999
v -2.8 0.1 0.0999999
v -2.4 0.1 0.0999999
v -2 0.1 0.0999999
v -1.6 0.1 0.0999999
v -1.2 0.1 0.0999999
v -0.8 0.1 0.0999999
v -0.4 0.1 0.0999999
v 0 0.1 0.0999999
v 0.4 0.1 0.0999999
v 0.8 0.1 0.0999999
v 1.2 0.1 0.0999999
v 1.6 0.1 0.0999999
v 2 0.1 0.0999999
v 2.4 0.1 0.0999999
v 2.8 0.1 0.0999999
v -3.2 0.1 -0.1
v -2.8 0.1 -0.1
v -2.4 0.1 -0.1
v -2 0.1 -0.1
v -1.6 0.1 -0.1
v -1.2 0.1 -0.1
v -0.8 0.1 -0.1
v -0.4 0.1 -0.1
v 0 0.1 -0.1
v 0.4 0.1 -0.1
v 0.8 0.1 -0.1
v 1.2 0.1 -0.1
v 1.6 0.1 -0.1
v 2 0.1 -0.1
v 2.4 0.1 -0.1
v 2.8 0.1 -0.1
v -3.2 0.1 -2.2
v 3.2 0.1 -2.2
v -3.2 0.2 3.2
v 3.2 0.2 3.2
v -3.2 0.2 2.2
v 3.2 0.2 2.2
v -3.2 0.2 -2.2
v 3.2 0.2 -2.2
v -3.2 0.2 -3.2
v 3.2 0.2 -3.2

# faces
f 7/2/1 2/2/1 1/2/1
f 7/3/1 3/3/1 2/3/1
f 8/1/1 4/1/1 3/1/1
f 8/3/1 3/3/1 7/3/1
f 9/3/1 5/3/1 4/3/1
f 9/1/1 4/1/1 8/1/1
f 10/2/1 6/2/1 5/2/1
f 10/3/1 5/3/1 9/3/1
f 11/2/1 7/2/1 1/2/1
f 12/2/1 7/2/1 11/2/1
f 13/2/1 6/2/1 10/2/1
f 14/2/1 6/2/1 13/2/1
f 15/2/2 16/2/2 19/2/2
f 16/3/2 17/3/2 19/3/2
f 17/2/2 18/2/2 20/2/2
f 19/3/2 17/3/2 20/3/2
f 15/2/2 19/2/2 21/2/2
f 21/2/2 19/2/2 22/2/2
f 20/2/2 18/2/2 23/2/2
f 23/2/2 18/2/2 24/2/2
f 27/2/3 26/2/3 25/2/3
f 28/2/3 26/2/3 27/2/3
f 31/2/3 30/2/3 29/2/3
f 32/2/3 30/2/3 31/2/3
f 33/2/4 34/2/4 35/2/4
f 35/2/4 34/2/4 36/2/4
f 37/2/4 38/2/4 39/2/4
f 39/2/4 38/2/4 40/2/4
f 43/2/5 42/2/5 41/2/5
f 44/2/5 42/2/5 43/2/5
f 45/3/5 44/3/5 43/3/5
f 46/3/5 44/3/5 45/3/5
f 47/3/5 44/3/5 46/3/5
f 48/3/5 44/3/5 47/3/5
f 49/3/5 44/3/5 48/3/5
f 50/3/5 44/3/5 49/3/5
f 51/3/5 44/3/5 50/3/5
f 52/3/5 44/3/5 51/3/5
f 53/3/5 44/3/5 52/3/5
f 54/3/5 44/3/5 53/3/5
f 55/3/5 44/3/5 54/3/5
f 56/3/5 44/3/5 55/3/5
f 57/3/5 44/3/5 56/3/5
f 58/3/5 44/3/5 57/3/5
f 59/3/5 44/3/5 58/3/5
f 60/3/5 44/3/5 59/3/5
f 61/1/5 46/1/5 45/1/5
f 62/3/5 47/3/5 46/3/5
f 62/1/5 46/1/5 61/1/5
f 63/1/5 48/1/5 47/1/5
f 63/3/5 47/3/5 62/3/5
f 64/3/5 49/3/5 48/3/5
f 64/1/5 48/1/5 63/1/5
f 65/1/5 50/1/5 49/1/5
f 65/3/5 49/3/5 64/3/5
f 66/3/5 51/3/5 50/3/5
f 66/1/5 50/1/5 65/1/5
f 67/1/5 52/1/5 51/1/5
f 67/3/5 51/3/5 66/3/5
f 68/3/5 53/3/5 52/3/5
f 68/1/5 52/1/5 67/1/5
f 69/1/5 54/1/5 53/1/5
f 69/3/5 53/3/5 68/3/5
f 70/3/5 55/3/5 54/3/5
f 70/1/5 54/1/5 69/1/5
f 71/1/5 56/1/5 55/1/5
f 71/3/5 55/3/5 70/3/5
f 72/3/5 57/3/5 56/3/5
f 72/1/5 56/1/5 71/1/5
f 73/1/5 58/1/5 57/1/5
f 73/3/5 57/3/5 72/3/5
f 74/3/5 59/3/5 58/3/5
f 74/1/5 58/1/5 73/1/5
f 75/1/5 60/1/5 59/1/5
f 75/3/5 59/3/5 74/3/5
f 76/3/5 44/3/5 60/3/5
f 76/1/5 60/1/5 75/1/5
f 77/3/5 75/3/5 74/3/5
f 77/3/5 62/3/5 61/3/5
f 77/3/5 76/3/5 75/3/5
f 77/3/5 74/3/5 73/3/5
f 77/3/5 73/3/5 72/3/5
f 77/3/5 72/3/5 71/3/5
f 77/3/5 71/3/5 70/3/5
f 77/3/5 70/3/5 69/3/5
f 77/3/5 69/3/5 68/3/5
f 77/3/5 68/3/5 67/3/5
f 77/3/5 67/3/5 66/3/5
f 77/3/5 66/3/5 65/3/5
f 77/3/5 65/3/5 64/3/5
f 77/3/5 64/3/5 63/3/5
f 77/3/5 63/3/5 62/3/5
f 78/3/5 44/3/5 76/3/5
f 78/3/5 76/3/5 77/3/5
f 79/2/5 78/2/5 77/2/5
f 80/2/5 78/2/5 79/2/5
f 81/3/6 82/3/6 83/3/6
f 83/3/6 82/3/6 84/3/6
f 84/3/6 82/3/6 85/3/6
f 85/3/6 82/3/6 86/3/6
f 86/3/6 82/3/6 87/3/6
f 87/3/6 82/3/6 88/3/6
f 88/3/6 82/3/6 89/3/6
f 89/3/6 82/3/6 90/3/6
f 90/3/6 82/3/6 91/3/6
f 91/3/6 82/3/6 92/3/6
f 92/3/6 82/3/6 93/3/6
f 93/3/6 82/3/6 94/3/6
f 94/3/6 82/3/6 95/3/6
f 95/3/6 82/3/6 96/3/6
f 96/3/6 82/3/6 97/3/6
f 97/3/6 82/3/6 98/3/6
f 83/1/6 84/1/6 99/1/6
f 84/3/6 85/3/6 100/3/6
f 99/1/6 84/1/6 100/1/6
f 85/1/6 86/1/6 101/1/6
f 100/3/6 85/3/6 101/3/6
f 86/3/6 87/3/6 102/3/6
f 101/1/6 86/1/6 102/1/6
f 87/1/6 88/1/6 103/1/6
f 102/3/6 87/3/6 103/3/6
f 88/3/6 89/3/6 104/3/6
f 103/1/6 88/1/6 104/1/6
f 89/1/6 90/1/6 105/1/6
f 104/3/6 89/3/6 105/3/6
f 90/3/6 91/3/6 106/3/6
f 105/1/6 90/1/6 106/1/6
f 91/1/6 92/1/6 107/1/6
f 106/3/6 91/3/6 107/3/6
f 92/3/6 93/3/6 108/3/6
f 107/1/6 92/1/6 108/1/6
f 93/1/6 94/1/6 109/1/6
f 108/3/6 93/3/6 109/3/6
f 94/3/6 95/3/6 110/3/6
f 109/1/6 94/1/6 110/1/6
f 95/1/6 96/1/6 111/1/6
f 110/3/6 95/3/6 111/3/6
f 96/3/6 97/3/6 112/3/6
f 111/1/6 96/1/6 112/1/6
f 97/1/6 98/1/6 113/1/6
f 112/3/6 97/3/6 113/3/6
f 98/3/6 82/3/6 114/3/6
f 113/1/6 98/1/6 114/1/6
f 112/3/6 113/3/6 115/3/6
f 99/3/6 100/3/6 115/3/6
f 113/3/6 114/3/6 115/3/6
f 111/3/6 112/3/6 115/3/6
f 110/3/6 111/3/6 115/3/6
f 109/3/6 110/3/6 115/3/6
f 108/3/6 109/3/6 115/3/6
f 107/3/6 108/3/6 115/3/6
f 106/3/6 107/3/6 115/3/6
f 105/3/6 106/3/6 115/3/6
f 104/3/6 105/3/6 115/3/6
f 103/3/6 104/3/6 115/3/6
f 102/3/6 103/3/6 115/3/6
f 101/3/6 102/3/6 115/3/6
f 100/3/6 101/3/6 115/3/6
f 114/3/6 82/3/6 116/3/6
f 115/3/6 114/3/6 116/3/6
f 117/2/6 118/2/6 119/2/6
f 119/2/6 118/2/6 120/2/6
f 121/2/6 122/2/6 123/2/6
f 123/2/6 122/2/6 124/2/6
