# MagicaVoxel @ Ephtracy

# group
o 

# material
mtllib Road90.mtl
usemtl palette

# normals
vn -1 0 0
vn 1 0 0
vn 0 0 1
vn 0 0 -1
vn 0 -1 0
vn 0 1 0

# texcoords
vt 0.00976563 0.5
vt 0.0214844 0.5
vt 0.0410156 0.5

# verts
v -3.2 0 3.2
v -3.2 0 -3.2
v -3.2 0.2 3.2
v -3.2 0.2 -3.2
v 2.2 0.1 3.2
v 2.2 0.1 -3.2
v 2.2 0.2 3.2
v 2.2 0.2 -3.2
v -2.2 0.1 3.2
v -2.2 0.1 -3.2
v -2.2 0.2 3.2
v -2.2 0.2 -3.2
v 3.2 0 3.2
v 3.2 0 -3.2
v 3.2 0.2 3.2
v 3.2 0.2 -3.2
v -3.2 0 3.2
v -3.2 0.2 3.2
v -2.2 0 3.2
v -2.2 0.1 3.2
v -2.2 0.2 3.2
v -0.0999999 0 3.2
v -0.0999999 0.1 3.2
v 0.1 0 3.2
v 0.1 0.1 3.2
v 2.2 0 3.2
v 2.2 0.1 3.2
v 2.2 0.2 3.2
v 3.2 0 3.2
v 3.2 0.2 3.2
v -3.2 0 -3.2
v -3.2 0.2 -3.2
v -2.2 0 -3.2
v -2.2 0.1 -3.2
v -2.2 0.2 -3.2
v 2.2 0 -3.2
v 2.2 0.1 -3.2
v 2.2 0.2 -3.2
v 3.2 0 -3.2
v 3.2 0.2 -3.2
v -3.2 0 3.2
v -2.2 0 3.2
v -0.0999999 0 3.2
v 0.1 0 3.2
v 2.2 0 3.2
v 3.2 0 3.2
v -0.0999999 0 2.8
v 0.1 0 2.8
v -0.0999999 0 2.4
v 0.1 0 2.4
v -0.0999999 0 2
v 0.1 0 2
v -0.0999999 0 1.6
v 0.1 0 1.6
v -0.0999999 0 1.2
v 0.1 0 1.2
v -0.0999999 0 0.8
v 0.1 0 0.8
v -0.0999999 0 0.4
v 0.1 0 0.4
v -0.0999999 0 0
v 0.1 0 0
v -0.0999999 0 -0.4
v 0.1 0 -0.4
v -0.0999999 0 -0.8
v 0.1 0 -0.8
v -0.0999999 0 -1.2
v 0.1 0 -1.2
v -0.0999999 0 -1.6
v 0.1 0 -1.6
v -0.0999999 0 -2
v 0.1 0 -2
v -0.0999999 0 -2.4
v 0.1 0 -2.4
v -0.0999999 0 -2.8
v 0.1 0 -2.8
v -3.2 0 -3.2
v -2.2 0 -3.2
v 2.2 0 -3.2
v 3.2 0 -3.2
v -2.2 0.1 3.2
v -0.0999999 0.1 3.2
v 0.1 0.1 3.2
v 2.2 0.1 3.2
v -0.0999999 0.1 2.8
v 0.1 0.1 2.8
v -0.0999999 0.1 2.4
v 0.1 0.1 2.4
v -0.0999999 0.1 2
v 0.1 0.1 2
v -0.0999999 0.1 1.6
v 0.1 0.1 1.6
v -0.0999999 0.1 1.2
v 0.1 0.1 1.2
v -0.0999999 0.1 0.8
v 0.1 0.1 0.8
v -0.0999999 0.1 0.4
v 0.1 0.1 0.4
v -0.0999999 0.1 0
v 0.1 0.1 0
v -0.0999999 0.1 -0.4
v 0.1 0.1 -0.4
v -0.0999999 0.1 -0.8
v 0.1 0.1 -0.8
v -0.0999999 0.1 -1.2
v 0.1 0.1 -1.2
v -0.0999999 0.1 -1.6
v 0.1 0.1 -1.6
v -0.0999999 0.1 -2
v 0.1 0.1 -2
v -0.0999999 0.1 -2.4
v 0.1 0.1 -2.4
v -0.0999999 0.1 -2.8
v 0.1 0.1 -2.8
v -2.2 0.1 -3.2
v 2.2 0.1 -3.2
v -3.2 0.2 3.2
v -2.2 0.2 3.2
v 2.2 0.2 3.2
v 3.2 0.2 3.2
v -3.2 0.2 -3.2
v -2.2 0.2 -3.2
v 2.2 0.2 -3.2
v 3.2 0.2 -3.2

# faces
f 3/2/1 2/2/1 1/2/1
f 4/2/1 2/2/1 3/2/1
f 7/2/1 6/2/1 5/2/1
f 8/2/1 6/2/1 7/2/1
f 9/2/2 10/2/2 11/2/2
f 11/2/2 10/2/2 12/2/2
f 13/2/2 14/2/2 15/2/2
f 15/2/2 14/2/2 16/2/2
f 19/2/3 18/2/3 17/2/3
f 20/2/3 18/2/3 19/2/3
f 21/2/3 18/2/3 20/2/3
f 22/3/3 20/3/3 19/3/3
f 23/3/3 20/3/3 22/3/3
f 24/1/3 23/1/3 22/1/3
f 25/1/3 23/1/3 24/1/3
f 26/3/3 25/3/3 24/3/3
f 27/3/3 25/3/3 26/3/3
f 29/2/3 27/2/3 26/2/3
f 29/2/3 28/2/3 27/2/3
f 30/2/3 28/2/3 29/2/3
f 31/2/4 32/2/4 33/2/4
f 33/2/4 32/2/4 34/2/4
f 34/2/4 32/2/4 35/2/4
f 33/3/4 34/3/4 36/3/4
f 36/3/4 34/3/4 37/3/4
f 36/2/4 37/2/4 39/2/4
f 37/2/4 38/2/4 39/2/4
f 39/2/4 38/2/4 40/2/4
f 47/3/5 43/3/5 42/3/5
f 47/1/5 44/1/5 43/1/5
f 48/3/5 45/3/5 44/3/5
f 48/1/5 44/1/5 47/1/5
f 49/3/5 47/3/5 42/3/5
f 49/3/5 48/3/5 47/3/5
f 50/3/5 45/3/5 48/3/5
f 50/3/5 48/3/5 49/3/5
f 51/3/5 49/3/5 42/3/5
f 51/1/5 50/1/5 49/1/5
f 52/3/5 45/3/5 50/3/5
f 52/1/5 50/1/5 51/1/5
f 53/3/5 51/3/5 42/3/5
f 53/3/5 52/3/5 51/3/5
f 54/3/5 45/3/5 52/3/5
f 54/3/5 52/3/5 53/3/5
f 55/3/5 53/3/5 42/3/5
f 55/1/5 54/1/5 53/1/5
f 56/3/5 45/3/5 54/3/5
f 56/1/5 54/1/5 55/1/5
f 57/3/5 55/3/5 42/3/5
f 57/3/5 56/3/5 55/3/5
f 58/3/5 45/3/5 56/3/5
f 58/3/5 56/3/5 57/3/5
f 59/3/5 57/3/5 42/3/5
f 59/1/5 58/1/5 57/1/5
f 60/3/5 45/3/5 58/3/5
f 60/1/5 58/1/5 59/1/5
f 61/3/5 59/3/5 42/3/5
f 61/3/5 60/3/5 59/3/5
f 62/3/5 45/3/5 60/3/5
f 62/3/5 60/3/5 61/3/5
f 63/3/5 61/3/5 42/3/5
f 63/1/5 62/1/5 61/1/5
f 64/3/5 45/3/5 62/3/5
f 64/1/5 62/1/5 63/1/5
f 65/3/5 63/3/5 42/3/5
f 65/3/5 64/3/5 63/3/5
f 66/3/5 45/3/5 64/3/5
f 66/3/5 64/3/5 65/3/5
f 67/3/5 65/3/5 42/3/5
f 67/1/5 66/1/5 65/1/5
f 68/3/5 45/3/5 66/3/5
f 68/1/5 66/1/5 67/1/5
f 69/3/5 67/3/5 42/3/5
f 69/3/5 68/3/5 67/3/5
f 70/3/5 45/3/5 68/3/5
f 70/3/5 68/3/5 69/3/5
f 71/3/5 69/3/5 42/3/5
f 71/1/5 70/1/5 69/1/5
f 72/3/5 45/3/5 70/3/5
f 72/1/5 70/1/5 71/1/5
f 73/3/5 71/3/5 42/3/5
f 73/3/5 72/3/5 71/3/5
f 74/3/5 45/3/5 72/3/5
f 74/3/5 72/3/5 73/3/5
f 75/3/5 73/3/5 42/3/5
f 75/1/5 74/1/5 73/1/5
f 76/3/5 45/3/5 74/3/5
f 76/1/5 74/1/5 75/1/5
f 77/2/5 42/2/5 41/2/5
f 78/3/5 75/3/5 42/3/5
f 78/2/5 42/2/5 77/2/5
f 78/3/5 76/3/5 75/3/5
f 79/3/5 45/3/5 76/3/5
f 79/3/5 76/3/5 78/3/5
f 79/2/5 46/2/5 45/2/5
f 80/2/5 46/2/5 79/2/5
f 81/3/6 82/3/6 85/3/6
f 82/1/6 83/1/6 85/1/6
f 83/3/6 84/3/6 86/3/6
f 85/1/6 83/1/6 86/1/6
f 81/3/6 85/3/6 87/3/6
f 85/3/6 86/3/6 87/3/6
f 86/3/6 84/3/6 88/3/6
f 87/3/6 86/3/6 88/3/6
f 81/3/6 87/3/6 89/3/6
f 87/1/6 88/1/6 89/1/6
f 88/3/6 84/3/6 90/3/6
f 89/1/6 88/1/6 90/1/6
f 81/3/6 89/3/6 91/3/6
f 89/3/6 90/3/6 91/3/6
f 90/3/6 84/3/6 92/3/6
f 91/3/6 90/3/6 92/3/6
f 81/3/6 91/3/6 93/3/6
f 91/1/6 92/1/6 93/1/6
f 92/3/6 84/3/6 94/3/6
f 93/1/6 92/1/6 94/1/6
f 81/3/6 93/3/6 95/3/6
f 93/3/6 94/3/6 95/3/6
f 94/3/6 84/3/6 96/3/6
f 95/3/6 94/3/6 96/3/6
f 81/3/6 95/3/6 97/3/6
f 95/1/6 96/1/6 97/1/6
f 96/3/6 84/3/6 98/3/6
f 97/1/6 96/1/6 98/1/6
f 81/3/6 97/3/6 99/3/6
f 97/3/6 98/3/6 99/3/6
f 98/3/6 84/3/6 100/3/6
f 99/3/6 98/3/6 100/3/6
f 81/3/6 99/3/6 101/3/6
f 99/1/6 100/1/6 101/1/6
f 100/3/6 84/3/6 102/3/6
f 101/1/6 100/1/6 102/1/6
f 81/3/6 101/3/6 103/3/6
f 101/3/6 102/3/6 103/3/6
f 102/3/6 84/3/6 104/3/6
f 103/3/6 102/3/6 104/3/6
f 81/3/6 103/3/6 105/3/6
f 103/1/6 104/1/6 105/1/6
f 104/3/6 84/3/6 106/3/6
f 105/1/6 104/1/6 106/1/6
f 81/3/6 105/3/6 107/3/6
f 105/3/6 106/3/6 107/3/6
f 106/3/6 84/3/6 108/3/6
f 107/3/6 106/3/6 108/3/6
f 81/3/6 107/3/6 109/3/6
f 107/1/6 108/1/6 109/1/6
f 108/3/6 84/3/6 110/3/6
f 109/1/6 108/1/6 110/1/6
f 81/3/6 109/3/6 111/3/6
f 109/3/6 110/3/6 111/3/6
f 110/3/6 84/3/6 112/3/6
f 111/3/6 110/3/6 112/3/6
f 81/3/6 111/3/6 113/3/6
f 111/1/6 112/1/6 113/1/6
f 112/3/6 84/3/6 114/3/6
f 113/1/6 112/1/6 114/1/6
f 81/3/6 113/3/6 115/3/6
f 113/3/6 114/3/6 115/3/6
f 114/3/6 84/3/6 116/3/6
f 115/3/6 114/3/6 116/3/6
f 117/2/6 118/2/6 121/2/6
f 121/2/6 118/2/6 122/2/6
f 119/2/6 120/2/6 123/2/6
f 123/2/6 120/2/6 124/2/6
