# MagicaVoxel @ Ephtracy

# group
o 

# material
mtllib RoadEnd180.mtl
usemtl palette

# normals
vn -1 0 0
vn 1 0 0
vn 0 0 1
vn 0 0 -1
vn 0 -1 0
vn 0 1 0

# texcoords
vt 0.00976563 0.5
vt 0.0214844 0.5
vt 0.0410156 0.5

# verts
v -3.2 0 3.2
v -3.2 0 2.2
v -3.2 0 -2.2
v -3.2 0 -3.2
v -3.2 0.1 2.2
v -3.2 0.1 -2.2
v -3.2 0.2 3.2
v -3.2 0.2 2.2
v -3.2 0.2 -2.2
v -3.2 0.2 -3.2
v 2.2 0.1 2.2
v 2.2 0.1 -2.2
v 2.2 0.2 2.2
v 2.2 0.2 -2.2
v 3.2 0 3.2
v 3.2 0 -3.2
v 3.2 0.2 3.2
v 3.2 0.2 -3.2
v -3.2 0 3.2
v -3.2 0.2 3.2
v 3.2 0 3.2
v 3.2 0.2 3.2
v -3.2 0.1 -2.2
v -3.2 0.2 -2.2
v 2.2 0.1 -2.2
v 2.2 0.2 -2.2
v -3.2 0.1 2.2
v -3.2 0.2 2.2
v 2.2 0.1 2.2
v 2.2 0.2 2.2
v -3.2 0 -3.2
v -3.2 0.2 -3.2
v 3.2 0 -3.2
v 3.2 0.2 -3.2
v -3.2 0 3.2
v 3.2 0 3.2
v -3.2 0 2.2
v 2.2 0 2.2
v -2.8 0 0.0999999
v -2.4 0 0.0999999
v -2 0 0.0999999
v -1.6 0 0.0999999
v -1.2 0 0.0999999
v -0.8 0 0.0999999
v -0.4 0 0.0999999
v 0 0 0.0999999
v -2.8 0 -0.1
v -2.4 0 -0.1
v -2 0 -0.1
v -1.6 0 -0.1
v -1.2 0 -0.1
v -0.8 0 -0.1
v -0.4 0 -0.1
v 0 0 -0.1
v -3.2 0 -2.2
v 2.2 0 -2.2
v -3.2 0 -3.2
v 3.2 0 -3.2
v -3.2 0.1 2.2
v 2.2 0.1 2.2
v -2.8 0.1 0.0999999
v -2.4 0.1 0.0999999
v -2 0.1 0.0999999
v -1.6 0.1 0.0999999
v -1.2 0.1 0.0999999
v -0.8 0.1 0.0999999
v -0.4 0.1 0.0999999
v 0 0.1 0.0999999
v -2.8 0.1 -0.1
v -2.4 0.1 -0.1
v -2 0.1 -0.1
v -1.6 0.1 -0.1
v -1.2 0.1 -0.1
v -0.8 0.1 -0.1
v -0.4 0.1 -0.1
v 0 0.1 -0.1
v -3.2 0.1 -2.2
v 2.2 0.1 -2.2
v -3.2 0.2 3.2
v 3.2 0.2 3.2
v -3.2 0.2 2.2
v 2.2 0.2 2.2
v -3.2 0.2 -2.2
v 2.2 0.2 -2.2
v -3.2 0.2 -3.2
v 3.2 0.2 -3.2

# faces
f 5/2/1 2/2/1 1/2/1
f 5/3/1 3/3/1 2/3/1
f 6/2/1 4/2/1 3/2/1
f 6/3/1 3/3/1 5/3/1
f 7/2/1 5/2/1 1/2/1
f 8/2/1 5/2/1 7/2/1
f 9/2/1 4/2/1 6/2/1
f 10/2/1 4/2/1 9/2/1
f 13/2/1 12/2/1 11/2/1
f 14/2/1 12/2/1 13/2/1
f 15/2/2 16/2/2 17/2/2
f 17/2/2 16/2/2 18/2/2
f 21/2/3 20/2/3 19/2/3
f 22/2/3 20/2/3 21/2/3
f 25/2/3 24/2/3 23/2/3
f 26/2/3 24/2/3 25/2/3
f 27/2/4 28/2/4 29/2/4
f 29/2/4 28/2/4 30/2/4
f 31/2/4 32/2/4 33/2/4
f 33/2/4 32/2/4 34/2/4
f 37/2/5 36/2/5 35/2/5
f 38/2/5 36/2/5 37/2/5
f 39/3/5 38/3/5 37/3/5
f 40/3/5 38/3/5 39/3/5
f 41/3/5 38/3/5 40/3/5
f 42/3/5 38/3/5 41/3/5
f 43/3/5 38/3/5 42/3/5
f 44/3/5 38/3/5 43/3/5
f 45/3/5 38/3/5 44/3/5
f 46/3/5 38/3/5 45/3/5
f 47/3/5 39/3/5 37/3/5
f 47/1/5 40/1/5 39/1/5
f 48/3/5 41/3/5 40/3/5
f 48/1/5 40/1/5 47/1/5
f 49/1/5 42/1/5 41/1/5
f 49/3/5 41/3/5 48/3/5
f 50/3/5 43/3/5 42/3/5
f 50/1/5 42/1/5 49/1/5
f 51/1/5 44/1/5 43/1/5
f 51/3/5 43/3/5 50/3/5
f 52/3/5 45/3/5 44/3/5
f 52/1/5 44/1/5 51/1/5
f 53/1/5 46/1/5 45/1/5
f 53/3/5 45/3/5 52/3/5
f 54/3/5 38/3/5 46/3/5
f 54/1/5 46/1/5 53/1/5
f 55/3/5 53/3/5 52/3/5
f 55/3/5 52/3/5 51/3/5
f 55/3/5 54/3/5 53/3/5
f 55/3/5 51/3/5 50/3/5
f 55/3/5 50/3/5 49/3/5
f 55/3/5 49/3/5 48/3/5
f 55/3/5 48/3/5 47/3/5
f 55/3/5 47/3/5 37/3/5
f 56/2/5 36/2/5 38/2/5
f 56/3/5 54/3/5 55/3/5
f 56/3/5 38/3/5 54/3/5
f 57/2/5 56/2/5 55/2/5
f 58/2/5 36/2/5 56/2/5
f 58/2/5 56/2/5 57/2/5
f 59/3/6 60/3/6 61/3/6
f 61/3/6 60/3/6 62/3/6
f 62/3/6 60/3/6 63/3/6
f 63/3/6 60/3/6 64/3/6
f 64/3/6 60/3/6 65/3/6
f 65/3/6 60/3/6 66/3/6
f 66/3/6 60/3/6 67/3/6
f 67/3/6 60/3/6 68/3/6
f 59/3/6 61/3/6 69/3/6
f 61/1/6 62/1/6 69/1/6
f 62/3/6 63/3/6 70/3/6
f 69/1/6 62/1/6 70/1/6
f 63/1/6 64/1/6 71/1/6
f 70/3/6 63/3/6 71/3/6
f 64/3/6 65/3/6 72/3/6
f 71/1/6 64/1/6 72/1/6
f 65/1/6 66/1/6 73/1/6
f 72/3/6 65/3/6 73/3/6
f 66/3/6 67/3/6 74/3/6
f 73/1/6 66/1/6 74/1/6
f 67/1/6 68/1/6 75/1/6
f 74/3/6 67/3/6 75/3/6
f 68/3/6 60/3/6 76/3/6
f 75/1/6 68/1/6 76/1/6
f 74/3/6 75/3/6 77/3/6
f 73/3/6 74/3/6 77/3/6
f 75/3/6 76/3/6 77/3/6
f 72/3/6 73/3/6 77/3/6
f 71/3/6 72/3/6 77/3/6
f 70/3/6 71/3/6 77/3/6
f 69/3/6 70/3/6 77/3/6
f 59/3/6 69/3/6 77/3/6
f 76/3/6 60/3/6 78/3/6
f 77/3/6 76/3/6 78/3/6
f 79/2/6 80/2/6 81/2/6
f 81/2/6 80/2/6 82/2/6
f 82/2/6 80/2/6 84/2/6
f 83/2/6 84/2/6 85/2/6
f 84/2/6 80/2/6 86/2/6
f 85/2/6 84/2/6 86/2/6
